<svg width="58" height="58" viewBox="0 0 58 58" fill="none" xmlns="http://www.w3.org/2000/svg">
<g clip-path="url(#clip0_53_254)">
<path d="M56.9564 6.65051H52.8283C52.2521 6.65051 51.7847 7.11782 51.7847 7.69409C51.7847 9.19158 51.7847 10.1044 51.7847 11.5402C50.8639 11.5402 6.47436 11.5402 6.21526 11.5402V7.69409C6.21526 7.11782 5.74795 6.65051 5.17168 6.65051H1.04358C0.467115 6.65051 0 7.11782 0 7.69409V50.3059C0 50.8822 0.467115 51.3495 1.04358 51.3495H5.17168C5.74795 51.3495 6.21526 50.8822 6.21526 50.3059C6.21526 46.83 6.21526 37.222 6.21526 33.7733C7.60709 33.7733 48.4957 33.7733 51.7847 33.7733V50.3059C51.7847 50.8822 52.2521 51.3495 52.8283 51.3495H56.9564C57.5327 51.3495 58 50.8822 58 50.3059V7.69409C58 7.11782 57.5329 6.65051 56.9564 6.65051ZM6.21526 29.8888V24.5268L10.7135 15.4249H17.6463L10.4982 29.889L6.21526 29.8888ZM21.4906 29.8886L28.6387 15.4245H35.5715L28.4233 29.8886H21.4906ZM51.3318 19.8059L46.3489 29.8884H39.4162L46.5645 15.4243H51.332V19.8059H51.3318Z" fill="black"/>
</g>
<defs>
<clipPath id="clip0_53_254">
<rect width="58" height="58" fill="white"/>
</clipPath>
</defs>
</svg>
