<svg width="60" height="60" viewBox="0 0 60 60" fill="none" xmlns="http://www.w3.org/2000/svg">
<path d="M22.9106 49.0425H34.3369C36.5044 49.0425 38.3212 48.2813 39.7275 46.815C41.1337 45.4088 42.0131 43.5338 42.0131 41.4244V18.5138C42.0131 16.4044 41.1337 14.5294 39.7275 13.1231C38.3212 11.7169 36.4462 10.8956 34.3369 10.8956H22.9106V15.7013H34.3369C35.9775 15.7013 37.2075 16.9313 37.2075 18.5138V41.4244C37.2075 43.0069 35.9775 44.295 34.3369 44.295H22.9106V49.0425ZM0 25.4306V34.5713C0 35.6269 0.879375 36.5044 1.93312 36.5044H12.5981V43.7119C12.5981 44.3569 12.8906 44.8838 13.4775 45.1763C13.7119 45.2344 14.0044 45.2344 14.1225 45.2344C14.5331 45.2344 14.8837 45.1163 15.1781 44.8238L28.9481 31.0538C29.475 30.5269 29.4169 29.4713 28.9481 28.8863L15.1781 15.1744C14.7094 14.7056 14.1225 14.6475 13.4794 14.8219C12.8925 15.1144 12.6 15.5831 12.6 16.2281V23.4938H1.935C0.879375 23.4938 0.001875 24.3731 0.001875 25.4269L0 25.4306Z" fill="black"/>
</svg>
