<svg width="57" height="56" viewBox="0 0 57 56" fill="none" xmlns="http://www.w3.org/2000/svg">
<path d="M48.9807 7.7665C48.0587 6.85526 46.5637 6.85526 45.6418 7.7665L28.4197 24.7867L11.1977 7.7665C10.2757 6.85526 8.78079 6.85526 7.85877 7.7665C6.93673 8.67771 6.93673 10.1551 7.85877 11.0663L25.0808 28.0865L7.85881 45.1066C6.93677 46.018 6.93677 47.4952 7.85881 48.4066C8.78083 49.3178 10.2757 49.3178 11.1978 48.4066L28.4197 31.3863L45.6418 48.4066C46.5637 49.3178 48.0587 49.3178 48.9807 48.4066C49.9027 47.4952 49.9027 46.018 48.9807 45.1068L31.7586 28.0865L48.9807 11.0663C49.9027 10.1551 49.9027 8.67771 48.9807 7.7665Z" fill="#0F0F0F"/>
</svg>
