<svg width="54" height="54" viewBox="0 0 54 54" fill="none" xmlns="http://www.w3.org/2000/svg">
<g clip-path="url(#clip0_53_149)">
<path fill-rule="evenodd" clip-rule="evenodd" d="M50.625 47.25C50.625 49.113 49.113 50.625 47.25 50.625H38.529L26.0955 38.0278L40.5 23.6233L50.625 33.7483V47.25ZM6.75 50.625C4.887 50.625 3.375 49.113 3.375 47.25V45.6654L16.7822 33.6572L33.7517 50.625H6.75ZM13.5 6.75C17.2277 6.75 20.25 9.77231 20.25 13.5C20.25 17.2277 17.2277 20.25 13.5 20.25C9.77231 20.25 6.75 17.2277 6.75 13.5C6.75 9.77231 9.77231 6.75 13.5 6.75ZM47.25 0H6.75C3.02231 0 0 3.02231 0 6.75V47.25C0 50.9777 3.02231 54 6.75 54H47.25C50.9777 54 54 50.9777 54 47.25V6.75C54 3.02231 50.9777 0 47.25 0ZM13.5 16.875C15.363 16.875 16.875 15.363 16.875 13.5C16.875 11.637 15.363 10.125 13.5 10.125C11.637 10.125 10.125 11.637 10.125 13.5C10.125 15.363 11.637 16.875 13.5 16.875Z" fill="black"/>
</g>
<defs>
<clipPath id="clip0_53_149">
<rect width="54" height="54" fill="white"/>
</clipPath>
</defs>
</svg>
