<svg width="58" height="58" viewBox="0 0 58 58" fill="none" xmlns="http://www.w3.org/2000/svg">
<g clip-path="url(#clip0_53_262)">
<mask id="mask0_53_262" style="mask-type:luminance" maskUnits="userSpaceOnUse" x="0" y="0" width="58" height="58">
<path d="M58 0H0V58H58V0Z" fill="white"/>
</mask>
<g mask="url(#mask0_53_262)">
<path d="M29.0001 2.32007C14.2646 2.32007 2.32007 14.2646 2.32007 29.0001C2.32007 43.7356 14.2646 55.68 29.0001 55.68C43.7356 55.68 55.68 43.7356 55.68 29.0001C55.68 14.2646 43.7356 2.32007 29.0001 2.32007ZM29.0001 12.7601C30.9222 12.7601 32.4801 14.3179 32.4801 16.2401C32.4801 18.1622 30.9222 19.7201 29.0001 19.7201C27.0779 19.7201 25.5201 18.1622 25.5201 16.2401C25.5201 14.3179 27.0779 12.7601 29.0001 12.7601ZM33.6401 44.08H31.3201H26.6801H24.3601V41.76H26.6801V26.6801H24.3601V24.3601H26.6801H31.3201V26.6801V41.76H33.6401V44.08Z" fill="black"/>
</g>
</g>
<defs>
<clipPath id="clip0_53_262">
<rect width="58" height="58" fill="white"/>
</clipPath>
</defs>
</svg>
