<svg width="58" height="58" viewBox="0 0 58 58" fill="none" xmlns="http://www.w3.org/2000/svg">
<path fill-rule="evenodd" clip-rule="evenodd" d="M48.3333 9.66675C52.3375 9.66675 55.5833 12.9127 55.5833 16.9167V41.0834C55.5833 45.0876 52.3375 48.3334 48.3333 48.3334H9.66663C5.66257 48.3334 2.41663 45.0876 2.41663 41.0834V16.9167C2.41663 12.9127 5.66257 9.66675 9.66663 9.66675H48.3333ZM46.5278 14.5001H11.4723L27.5026 27.1554C28.3806 27.8488 29.6194 27.8488 30.4976 27.1554L46.5278 14.5001ZM7.24996 17.3247V41.0834C7.24996 42.4181 8.33195 43.5001 9.66663 43.5001H48.3333C49.668 43.5001 50.75 42.4181 50.75 41.0834V17.3247L33.4923 30.9491C30.8584 33.0287 27.1415 33.0287 24.5076 30.9491L7.24996 17.3247Z" fill="#0F0F0F"/>
</svg>
