<svg width="58" height="58" viewBox="0 0 58 58" fill="none" xmlns="http://www.w3.org/2000/svg">
<path fill-rule="evenodd" clip-rule="evenodd" d="M29.0002 4.83337C28.2928 4.83337 27.9391 4.83337 27.6569 4.93958C27.2103 5.10768 26.8578 5.46016 26.6896 5.90679C26.5834 6.18898 26.5834 6.54267 26.5834 7.25004V23.2692C26.5834 24.8315 26.5834 25.6127 26.0982 26.0981C25.6128 26.5834 24.8316 26.5834 23.2691 26.5834H7.25016C6.54279 26.5834 6.18911 26.5834 5.90691 26.6897C5.46028 26.8577 5.1078 27.2102 4.9397 27.6568C4.8335 27.939 4.8335 28.2926 4.8335 29.0001C4.8335 29.7073 4.8335 30.0611 4.9397 30.3433C5.1078 30.7899 5.46028 31.1424 5.90691 31.3104C6.18911 31.4167 6.54279 31.4167 7.25016 31.4167H23.2691C24.8316 31.4167 25.6128 31.4167 26.0982 31.902C26.5834 32.3874 26.5834 33.1686 26.5834 34.7309V50.7501C26.5834 51.4573 26.5834 51.8111 26.6896 52.0933C26.8578 52.5399 27.2103 52.8924 27.6569 53.0604C27.9391 53.1667 28.2928 53.1667 29.0002 53.1667C29.7075 53.1667 30.0613 53.1667 30.3435 53.0604C30.7901 52.8924 31.1425 52.5399 31.3106 52.0933C31.4168 51.8111 31.4168 51.4573 31.4168 50.7501V34.7309C31.4168 33.1686 31.4168 32.3874 31.9022 31.902C32.3876 31.4167 33.1687 31.4167 34.7311 31.4167H50.7502C51.4575 31.4167 51.8113 31.4167 52.0935 31.3104C52.5401 31.1424 52.8925 30.7899 53.0606 30.3433C53.1668 30.0611 53.1668 29.7073 53.1668 29.0001C53.1668 28.2926 53.1668 27.939 53.0606 27.6568C52.8925 27.2102 52.5401 26.8577 52.0935 26.6897C51.8113 26.5834 51.4575 26.5834 50.7502 26.5834H34.7311C33.1687 26.5834 32.3876 26.5834 31.9022 26.0981C31.4168 25.6127 31.4168 24.8315 31.4168 23.2692V7.25004C31.4168 6.54267 31.4168 6.18898 31.3106 5.90679C31.1425 5.46016 30.7901 5.10768 30.3435 4.93958C30.0613 4.83337 29.7075 4.83337 29.0002 4.83337Z" fill="white"/>
</svg>
