<svg width="56" height="56" viewBox="0 0 56 56" fill="none" xmlns="http://www.w3.org/2000/svg">
<path fill-rule="evenodd" clip-rule="evenodd" d="M5.32625 21.638C10.95 13.8663 19.1241 9.26331 28 9.26331C31.1535 9.26331 34.2288 9.84596 37.1359 10.9519C38.0393 11.2955 38.493 12.3064 38.1493 13.2098C37.8058 14.1131 36.7948 14.5669 35.8915 14.2232C33.3722 13.2648 30.7181 12.7633 28 12.7633C20.4028 12.7633 13.2239 16.6935 8.16099 23.6908L8.15931 23.6932C7.37081 24.7793 6.91821 26.3354 6.91821 27.9884C6.91821 29.6411 7.37081 31.1974 8.15931 32.2833L8.16099 32.2857C9.16675 33.6759 10.2566 34.945 11.4162 36.086C12.1051 36.7638 12.114 37.8719 11.4361 38.5607C10.7582 39.2497 9.65024 39.2586 8.96135 38.5808C7.65839 37.2986 6.44193 35.8806 5.32541 34.3374C4.01508 32.5314 3.41821 30.2116 3.41821 27.9884C3.41821 25.7645 4.01534 23.4442 5.32625 21.638ZM43.8034 16.7729C44.4579 16.0618 45.5651 16.0159 46.2762 16.6704C47.8692 18.1365 49.3427 19.799 50.6743 21.6392C51.9847 23.4451 52.5816 25.7649 52.5816 27.9884C52.5816 30.212 51.9843 32.5323 50.6734 34.3385C45.0498 42.1104 36.8757 46.7134 28 46.7134C24.5266 46.7134 21.1487 46.0064 17.9863 44.6729C17.0958 44.2974 16.6783 43.271 17.0538 42.3804C17.4294 41.4897 18.4558 41.0723 19.3463 41.448C22.0907 42.6053 25.0068 43.2134 28 43.2134C35.597 43.2134 42.7758 39.2831 47.8386 32.2857L47.8405 32.2833C48.6289 31.1974 49.0816 29.6411 49.0816 27.9884C49.0816 26.3354 48.6289 24.7793 47.8405 23.6932L47.8386 23.6908C46.6393 22.0332 45.3203 20.5474 43.906 19.2457C43.1949 18.5912 43.1489 17.4841 43.8034 16.7729Z" fill="black"/>
<path fill-rule="evenodd" clip-rule="evenodd" d="M28 22.75C25.095 22.75 22.75 25.095 22.75 28C22.75 29.2796 23.2028 30.4456 23.9573 31.3542C24.5747 32.0978 24.4722 33.201 23.7286 33.8184C22.9851 34.4358 21.8818 34.3336 21.2644 33.59C20.0062 32.0745 19.25 30.1238 19.25 28C19.25 23.162 23.162 19.25 28 19.25C30.3835 19.25 32.5467 20.202 34.1234 21.7455C34.814 22.4217 34.8257 23.5296 34.1495 24.2202C33.4733 24.9109 32.3654 24.9226 31.6748 24.2464C30.7279 23.3193 29.4343 22.75 28 22.75ZM35 26.25C35.9665 26.25 36.75 27.0335 36.75 28C36.75 32.8379 32.8379 36.75 28 36.75C27.0335 36.75 26.25 35.9665 26.25 35C26.25 34.0335 27.0335 33.25 28 33.25C30.905 33.25 33.25 30.905 33.25 28C33.25 27.0335 34.0335 26.25 35 26.25Z" fill="black"/>
<path fill-rule="evenodd" clip-rule="evenodd" d="M52.6243 5.11859C53.2767 5.83165 53.2277 6.93859 52.5147 7.59103L5.848 50.2911C5.13493 50.9435 4.02799 50.8942 3.37555 50.1812C2.7231 49.4681 2.77224 48.3612 3.48529 47.7088L50.1519 5.00885C50.865 4.3564 51.9719 4.40554 52.6243 5.11859Z" fill="black"/>
</svg>
