<svg width="56" height="56" viewBox="0 0 56 56" fill="none" xmlns="http://www.w3.org/2000/svg">
<path fill-rule="evenodd" clip-rule="evenodd" d="M28 22.75C25.095 22.75 22.75 25.095 22.75 28C22.75 30.905 25.095 33.25 28 33.25C30.905 33.25 33.25 30.905 33.25 28C33.25 25.095 30.905 22.75 28 22.75ZM19.25 28C19.25 23.162 23.162 19.25 28 19.25C32.8379 19.25 36.75 23.162 36.75 28C36.75 32.8379 32.8379 36.75 28 36.75C23.162 36.75 19.25 32.8379 19.25 28Z" fill="black"/>
<path fill-rule="evenodd" clip-rule="evenodd" d="M5.32649 21.638C10.9502 13.8663 19.1243 9.26331 28.0001 9.26331C36.8764 9.26331 45.0507 13.8667 50.6745 21.6392C51.9849 23.4451 52.5818 25.7649 52.5818 27.9884C52.5818 30.212 51.9847 32.5323 50.6738 34.3385C45.05 42.1104 36.8759 46.7134 28.0001 46.7134C19.1239 46.7134 10.9494 42.1099 5.32565 34.3374C4.01535 32.5314 3.41846 30.2116 3.41846 27.9884C3.41846 25.7645 4.01558 23.4442 5.32649 21.638ZM28.0001 12.7633C20.403 12.7633 13.2241 16.6935 8.16124 23.6908L8.15958 23.6932C7.37105 24.7793 6.91846 26.3354 6.91846 27.9884C6.91846 29.6411 7.37105 31.1974 8.15958 32.2833L8.16124 32.2857C13.2241 39.2831 20.403 43.2134 28.0001 43.2134C35.5972 43.2134 42.776 39.2831 47.8391 32.2857L47.8407 32.2833C48.6291 31.1974 49.0818 29.6411 49.0818 27.9884C49.0818 26.3354 48.6291 24.7793 47.8407 23.6932L47.8391 23.6908C42.776 16.6935 35.5972 12.7633 28.0001 12.7633Z" fill="black"/>
</svg>
