<svg width="59" height="58" viewBox="0 0 59 58" fill="none" xmlns="http://www.w3.org/2000/svg">
<path d="M29.3439 56.0667C44.4696 56.0667 56.7316 43.9485 56.7316 29C56.7316 14.0515 44.4696 1.93329 29.3439 1.93329C14.2181 1.93329 1.9563 14.0515 1.9563 29C1.9563 43.9485 14.2181 56.0667 29.3439 56.0667Z" fill="black"/>
<path d="M29.3437 31.9C34.7458 31.9 39.125 27.5721 39.125 22.2333C39.125 16.8946 34.7458 12.5667 29.3437 12.5667C23.9417 12.5667 19.5625 16.8946 19.5625 22.2333C19.5625 27.5721 23.9417 31.9 29.3437 31.9Z" fill="white"/>
<mask id="mask0_53_282" style="mask-type:luminance" maskUnits="userSpaceOnUse" x="4" y="4" width="50" height="50">
<path d="M29.3437 53.1667C42.8489 53.1667 53.797 42.3468 53.797 29C53.797 15.6531 42.8489 4.83331 29.3437 4.83331C15.8386 4.83331 4.8905 15.6531 4.8905 29C4.8905 42.3468 15.8386 53.1667 29.3437 53.1667Z" fill="white"/>
</mask>
<g mask="url(#mask0_53_282)">
<path d="M29.3439 71.5334C39.6077 71.5334 47.9283 63.3104 47.9283 53.1667C47.9283 43.023 39.6077 34.8 29.3439 34.8C19.08 34.8 10.7594 43.023 10.7594 53.1667C10.7594 63.3104 19.08 71.5334 29.3439 71.5334Z" fill="white"/>
</g>
</svg>
