<svg width="58" height="58" viewBox="0 0 58 58" fill="none" xmlns="http://www.w3.org/2000/svg">
<path d="M24.7708 7.25C15.123 7.25 7.25 15.123 7.25 24.7708C7.25 34.4187 15.123 42.2916 24.7708 42.2916C28.7259 42.2916 32.37 40.9541 35.3084 38.7281L46.6247 50.0421C46.8474 50.2739 47.1141 50.4592 47.4092 50.5866C47.7043 50.7142 48.022 50.7816 48.3435 50.785C48.665 50.7881 48.984 50.7273 49.2816 50.6057C49.5794 50.4842 49.8498 50.3046 50.0772 50.0772C50.3046 49.8498 50.4842 49.5794 50.6057 49.2816C50.7273 48.984 50.7881 48.665 50.785 48.3435C50.7816 48.022 50.7142 47.7043 50.5866 47.4092C50.4592 47.1141 50.2739 46.8474 50.0421 46.6247L38.7281 35.3084C40.9541 32.37 42.2916 28.7259 42.2916 24.7708C42.2916 15.123 34.4187 7.25 24.7708 7.25ZM24.7708 12.0833C31.8065 12.0833 37.4584 17.7351 37.4584 24.7708C37.4584 28.1491 36.1461 31.1999 34.0127 33.4675C33.805 33.6178 33.6226 33.8002 33.4723 34.0081C31.2042 36.1441 28.1514 37.4584 24.7708 37.4584C17.7351 37.4584 12.0833 31.8065 12.0833 24.7708C12.0833 17.7351 17.7351 12.0833 24.7708 12.0833Z" fill="white"/>
</svg>
