<svg width="60" height="60" viewBox="0 0 60 60" fill="none" xmlns="http://www.w3.org/2000/svg">
<g clip-path="url(#clip0_53_230)">
<path d="M0 18.5156V41.4262C0 43.5356 0.879375 45.4106 2.28562 46.875C3.69187 48.2812 5.50875 49.0425 7.61813 49.0425H19.1025V44.2968H7.61813C6.03563 44.2968 4.80562 43.0068 4.80562 41.4262V18.5156C4.80562 16.9331 6.03563 15.7031 7.61813 15.7031H19.1025V10.8975H7.61813C5.50875 10.8975 3.69187 11.7187 2.28562 13.125C0.879375 14.5893 0 16.4062 0 18.5156ZM12.5981 25.4306V34.5712C12.5981 35.6268 13.5356 36.5043 14.5913 36.5043H25.1962V43.7118C25.1962 44.3568 25.5487 44.8837 26.1337 45.1762C26.3681 45.2343 26.6025 45.2343 26.7206 45.2343C27.1313 45.2343 27.4819 45.1162 27.7763 44.8237L41.5463 31.0537C42.1913 30.5268 42.1331 29.4712 41.5463 28.8862L27.7763 15.1743C26.955 14.295 25.1981 14.8218 25.1981 16.23V23.4956H14.5931C13.5375 23.4956 12.6 24.375 12.6 25.4287L12.5981 25.4306Z" fill="black"/>
</g>
<defs>
<clipPath id="clip0_53_230">
<rect width="60" height="60" fill="white"/>
</clipPath>
</defs>
</svg>
