<svg width="54" height="47" viewBox="0 0 54 47" fill="none" xmlns="http://www.w3.org/2000/svg">
<path d="M50.1428 26.0357C51.7404 26.0357 53.0357 24.7405 53.0357 23.1429C53.0357 21.5452 51.7404 20.25 50.1428 20.25V26.0357ZM1.81153 21.0972C0.681801 22.227 0.681801 24.0587 1.81153 25.1885L20.2216 43.5984C21.3514 44.7282 23.1829 44.7282 24.3127 43.5984C25.4424 42.4687 25.4424 40.6371 24.3127 39.5074L7.94821 23.1429L24.3127 6.77839C25.4424 5.64865 25.4424 3.81699 24.3127 2.68727C23.1829 1.55753 21.3514 1.55753 20.2216 2.68727L1.81153 21.0972ZM50.1428 20.25H3.85709V26.0357H50.1428V20.25Z" fill="black"/>
</svg>
