<svg width="58" height="58" viewBox="0 0 58 58" fill="none" xmlns="http://www.w3.org/2000/svg">
<path d="M24.2576 12.8474L25.826 15.6578C27.2415 18.194 26.6733 21.5212 24.4439 23.7505C24.4439 23.7505 21.7401 26.4547 26.6426 31.3574C31.5436 36.2584 34.2496 33.5561 34.2496 33.5561C36.4789 31.3267 39.806 30.7586 42.3423 32.174L45.1526 33.7424C48.9825 35.8797 49.4347 41.2505 46.0685 44.6169C44.0458 46.6397 41.5677 48.2137 38.8284 48.3173C34.2172 48.4923 26.386 47.3253 18.5304 39.4697C10.6748 31.6141 9.50776 23.7829 9.68258 19.1716C9.78643 16.4323 11.3604 13.9543 13.3831 11.9316C16.7494 8.5653 22.1202 9.01761 24.2576 12.8474Z" fill="black"/>
</svg>
