<svg width="56" height="56" viewBox="0 0 56 56" fill="none" xmlns="http://www.w3.org/2000/svg">
<path fill-rule="evenodd" clip-rule="evenodd" d="M8.16664 28C8.16664 17.0464 17.0463 8.16667 27.9999 8.16667C38.9535 8.16667 47.8333 17.0464 47.8333 28C47.8333 38.9536 38.9535 47.8333 27.9999 47.8333C24.0981 47.8333 20.4662 46.7091 17.4019 44.7676C16.8316 44.4064 16.1328 44.3098 15.4859 44.5027L8.76787 46.5078L11.2973 40.589C11.5963 39.8895 11.5354 39.0882 11.1343 38.4419C9.25322 35.4107 8.16664 31.8358 8.16664 28ZM27.9999 3.5C14.469 3.5 3.49997 14.469 3.49997 28C3.49997 32.2889 4.60396 36.326 6.54411 39.8363L2.52102 49.2497C2.16537 50.082 2.32301 51.0447 2.9255 51.72C3.52799 52.3955 4.46667 52.6615 5.3339 52.4025L15.8325 49.2695C19.419 51.3252 23.5752 52.5 27.9999 52.5C41.5309 52.5 52.4999 41.531 52.4999 28C52.4999 14.469 41.5309 3.5 27.9999 3.5ZM33.3491 33.0923L30.2826 35.2522C28.8465 34.4342 27.2586 33.2922 25.6659 31.6995C24.0102 30.0438 22.7826 28.3344 21.8775 26.7664L23.8263 25.1123C24.6626 24.4025 24.8915 23.2058 24.3763 22.2373L21.8932 17.5707C21.5588 16.9423 20.956 16.5009 20.2559 16.3719C19.5559 16.243 18.8353 16.4407 18.299 16.9087L17.5628 17.5512C15.7925 19.0963 14.7454 21.6354 15.6132 24.2062C16.5129 26.8714 18.4329 31.066 22.3661 34.9993C26.5978 39.231 30.8963 40.8975 33.41 41.5448C35.4353 42.066 37.3519 41.3672 38.7025 40.2668L40.0826 39.1421C40.673 38.6612 40.9915 37.9223 40.9359 37.1628C40.8802 36.4033 40.4574 35.7187 39.8031 35.3288L35.8871 32.9954C35.0961 32.5243 34.1021 32.5621 33.3491 33.0923Z" fill="black"/>
</svg>
